<svg xmlns="http://www.w3.org/2000/svg" width="440" height="394" viewBox="0 0 440 394">
  <defs>
    <style>
      .cls-1, .cls-2 {
        fill: #333;
      }

      .cls-1 {
        fill-rule: evenodd;
      }
    </style>
  </defs>
  <path class="cls-1" d="M200.238,254.578s-45.938-37.539-62.077-69.013c0,0,33.038-16.791,21.252-34.016s-23.525-35.822-23.525-35.822-8.594-11.151-22.836-4.541-29.3,17.384-29.242,36.152,15.279,96.18,105.135,148.551c0,0,43.273,25.455,71.7,10.771,0,0,15.012-12.353,18.107-25.65s-0.617-15.934-11.138-23.547-34.1-25-34.1-25-10.565-4.18-19.891,7S200.238,254.578,200.238,254.578Z"/>
  <path class="cls-1" d="M135.372,51.783l-5.287-15.822S44.648,59.24,10.359,151.188,33.074,345.428,99.724,374.4s156.223,38.845,231.924-55.789c0,0,31.83-34.055,33.646-103.09,0,0,25.807-1.129,38.172-35.129,0,0,5.488-15.7,5.488-22.07s0.743-8.262,2.243-12.875,23.892-66.5,26.593-79.34,6.37-37.525-18.086-51.051c0,0-13.136-7.748-18.453-10.561s-15.98-8.605-21.552.982-7.973,15.115,5.73,22.754c0,0,6.732,1.172,12.555-1.389s15.334-.992,19.836,10.43,6.6,16.65-2.7,41.623-23.546,66.386-23.546,66.386-7.368,2.309-9.059,13.782-14.979,38.49-31.088,30.867-20.314-26.526-22.064-32.576-3.682-9.106-6.955-11.391S293.353,61.444,292.826,55.49s2.484-18.951,12.193-26.719,9.129-1.885,13.349-1.016,16.811,3.063,19.877-7.109-1.39-20.26-11.871-19.139S311.2,7.434,304.3,8.7s-29.67,18.627-29.728,40.965,28.781,102.678,28.781,102.678a21.891,21.891,0,0,0-.293,12.752c1.967,6.926,14.469,39.592,27.056,44.5s14.088,4.731,14.088,4.731,3.864-.118,3.51,4.376S345.949,326.908,237.732,367.9,28.07,319.076,20.142,231.9,59.992,80.7,135.372,51.783Z"/>
  <ellipse class="cls-2" cx="164.359" cy="35.953" rx="23.641" ry="23.547"/>
</svg>
