<svg xmlns="http://www.w3.org/2000/svg" width="288" height="327" viewBox="0 0 288 327">
  <defs>
    <style>
      .cls-1 {
        fill: #333;
      }

      .cls-1, .cls-2 {
        fill-rule: evenodd;
      }

      .cls-2 {
        fill: #f0b436;
      }
    </style>
  </defs>
  <path class="cls-1" d="M206.736,92.591l0.4-28.623s-2.832-26.373-24.6-41-43.717-18.025-70.543-7.229S69.617,46.417,71.109,91.62c0,0-15.924,1.627-15.924,18.291s-1.672,30.411,17.393,34.264c0,0-1.477,40.4-27.32,60.152l16.627,0.354S12.7,230.745,13.046,280.337c0,0-3.562,33.629,30.184,35.983s184.775,0,184.775,0,37.209-.19,37.1-28.473-10.068-66.572-55.131-86.6l20.553,2.317S207.788,181,206.4,143.376c0,0,18.705-4.47,17.826-23.459S219.107,92.472,206.736,92.591Z"/>
  <path class="cls-2" d="M192.648,62.029S173.165,32.192,141.005,33.29c-28.851.986-43.728,8.785-53.937,29.729,0,0-7.629-25.215,35.015-41.69C162.328,5.78,191.517,47.943,192.648,62.029Z"/>
  <path class="cls-2" d="M173.98,84.287s-43.906,37.052-90.125,39.792c0,0,3.3,44.8,28.015,61.883s51.295,15.442,74.643-25.488l-31.967,5.531s-4.545,4.617-14.455,4.617-13.412-3.074-13.238-8.105,3.258-8.807,11.637-7.938,12.533-.589,13.968,2.985,34.666-6.508,38.016-11.285,5.469-15.4,5.643-21.672a27.663,27.663,0,0,0-1.233-9.895l-14.508-2.494s-6.283.578-9.779,4.1S188.314,103.339,173.98,84.287Z"/>
  <path class="cls-2" d="M103.9,190.023l7.687,19.7-22.242-5.344s14.141,18.006,28.232,18.235l21.624,32.6,18.988-29.224S184.65,219,187.74,200.5l-21.705,3.455s6.3-7.783,7.277-13.849C173.312,190.109,141.98,220.849,103.9,190.023Z"/>
  <path class="cls-2" d="M97.437,190.853s-17.4-3.007-24.868,25.561c0,0,23.763,10.169,27.361,35.306s7.275,40.381-7.775,43.432S73.085,293.831,74.3,287.57s7.436-5.055,10.85-4.707,6.154-.009,6.083-10.775-4.1-35.115-15.129-39.643-16.172-3.239-24.458,7.29c-10.931,13.89-8.9,33.053-9.432,37.51s1.139,6.389,7.209,5.983,10.123,1.269,10.471,4.92,1.2,5.943-6.211,7.445S31.021,292.9,31.074,282.8s-0.312-35.942,12.215-52.14c9.617-12.435,19.008-15.323,21.022-21.3s5.512-16.525,15.511-23.4a26.933,26.933,0,0,1,15.252-4.713C98.425,181.249,99.886,183.411,97.437,190.853Z"/>
  <path class="cls-2" d="M185.679,183.607s-5.07-2.252-5.887,4.912,3.146,0.827,8.674,5.984c9.771,9.116,9.043,14.067,9.217,18.524,0,0-15.326,2.048-15.615,19.845s20.021,19.969,23.386,19.518c9.142-1.225,18.829-10.125,16.627-22.918s-13.4-16.641-15.724-16.641S208.277,193.652,185.679,183.607Z"/>
</svg>
