<?xml version="1.0" encoding="utf-8"?>
<!-- Generator: Adobe Illustrator 23.0.0, SVG Export Plug-In . SVG Version: 6.00 Build 0)  -->
<svg version="1.1" id="Layer_1" xmlns="http://www.w3.org/2000/svg" xmlns:xlink="http://www.w3.org/1999/xlink" x="0px" y="0px"
	 viewBox="0 0 581.77 272.09" style="enable-background:new 0 0 581.77 272.09;" xml:space="preserve">
<style type="text/css">
	.st0{fill:#D02753;}
	.st1{fill:#FFFFFF;}
	.st2{fill:#E6352D;}
	.st3{fill:#868585;}
	.st4{fill:#CE2752;}
	.st5{fill:#FDBB50;}
</style>
<g>
	<path class="st0" d="M204.62,136.78c8.32-5.71,13.79-10.27,19.53-20.63V0H0v232.6h143.45c2.79-29.37,17.89-51.85,25.42-61.23
		C183.22,153.51,189.32,147.27,204.62,136.78z"/>
	<circle class="st1" cx="56.73" cy="32.05" r="8.46"/>
	<circle class="st1" cx="56.73" cy="53" r="8.46"/>
	
		<ellipse transform="matrix(0.248 -0.9688 0.9688 0.248 -28.9683 110.5682)" class="st1" cx="56.73" cy="73.94" rx="8.46" ry="8.46"/>
	
		<ellipse transform="matrix(0.6434 -0.7655 0.7655 0.6434 -52.4077 77.2689)" class="st1" cx="56.73" cy="94.89" rx="8.46" ry="8.46"/>
	
		<ellipse transform="matrix(0.6434 -0.7655 0.7655 0.6434 -68.4413 84.7378)" class="st1" cx="56.73" cy="115.83" rx="8.46" ry="8.46"/>
	<circle class="st1" cx="56.73" cy="136.78" r="8.46"/>
	<circle class="st1" cx="56.73" cy="157.72" r="8.46"/>
	
		<ellipse transform="matrix(0.248 -0.9688 0.9688 0.248 -130.4187 189.3204)" class="st1" cx="56.73" cy="178.66" rx="8.46" ry="8.46"/>
	
		<ellipse transform="matrix(0.248 -0.9688 0.9688 0.248 -150.7088 205.0709)" class="st1" cx="56.73" cy="199.61" rx="8.46" ry="8.46"/>
	<circle class="st1" cx="79.16" cy="32.05" r="8.46"/>
	<circle class="st1" cx="79.16" cy="53" r="8.46"/>
	
		<ellipse transform="matrix(0.7071 -0.7071 0.7071 0.7071 -29.0996 77.6332)" class="st1" cx="79.16" cy="73.94" rx="8.46" ry="8.46"/>
	
		<ellipse transform="matrix(0.2289 -0.9734 0.9734 0.2289 -31.3276 150.2249)" class="st1" cx="79.16" cy="94.89" rx="8.46" ry="8.46"/>
	
		<ellipse transform="matrix(0.2289 -0.9734 0.9734 0.2289 -51.7157 166.3745)" class="st1" cx="79.16" cy="115.83" rx="8.46" ry="8.46"/>
	<circle class="st1" cx="79.16" cy="136.78" r="8.46"/>
	<circle class="st1" cx="79.16" cy="157.72" r="8.46"/>
	
		<ellipse transform="matrix(0.7071 -0.7071 0.7071 0.7071 -103.1488 108.3053)" class="st1" cx="79.16" cy="178.66" rx="8.46" ry="8.46"/>
	
		<ellipse transform="matrix(0.7071 -0.7071 0.7071 0.7071 -117.9586 114.4398)" class="st1" cx="79.16" cy="199.61" rx="8.46" ry="8.46"/>
	<circle class="st1" cx="101.59" cy="32.05" r="8.46"/>
	<circle class="st1" cx="101.59" cy="53" r="8.46"/>
	
		<ellipse transform="matrix(0.6603 -0.751 0.751 0.6603 -21.0201 101.4174)" class="st1" cx="101.59" cy="73.94" rx="8.46" ry="8.46"/>
	<ellipse transform="matrix(0.243 -0.97 0.97 0.243 -35.4549 186.2315)" class="st1" cx="101.59" cy="115.83" rx="8.46" ry="8.46"/>
	<circle class="st1" cx="101.59" cy="136.78" r="8.46"/>
	<circle class="st1" cx="101.59" cy="157.72" r="8.46"/>
	<circle class="st1" cx="124.02" cy="32.05" r="8.46"/>
	<circle class="st2" cx="124.02" cy="53" r="8.46"/>
	
		<ellipse transform="matrix(0.7071 -0.7071 0.7071 0.7071 -15.9617 109.3509)" class="st1" cx="124.02" cy="73.94" rx="8.46" ry="8.46"/>
	
		<ellipse transform="matrix(0.2289 -0.9734 0.9734 0.2289 3.2596 193.8893)" class="st1" cx="124.02" cy="94.89" rx="8.46" ry="8.46"/>
	
		<ellipse transform="matrix(0.2289 -0.9734 0.9734 0.2289 -17.1285 210.039)" class="st1" cx="124.02" cy="115.83" rx="8.46" ry="8.46"/>
	<circle class="st1" cx="124.02" cy="136.78" r="8.46"/>
	<circle class="st1" cx="124.02" cy="157.72" r="8.46"/>
	<circle class="st2" cx="146.45" cy="32.05" r="8.46"/>
	<circle class="st2" cx="146.45" cy="53" r="8.46"/>
	
		<ellipse transform="matrix(0.7071 -0.7071 0.7071 0.7071 -9.3927 125.2097)" class="st2" cx="146.45" cy="73.94" rx="8.46" ry="8.46"/>
	
		<ellipse transform="matrix(0.2289 -0.9734 0.9734 0.2289 20.5532 215.7215)" class="st1" cx="146.45" cy="94.89" rx="8.46" ry="8.46"/>
	
		<ellipse transform="matrix(0.2289 -0.9734 0.9734 0.2289 0.165 231.8712)" class="st1" cx="146.45" cy="115.83" rx="8.46" ry="8.46"/>
	<circle class="st1" cx="146.45" cy="136.78" r="8.46"/>
	<circle class="st1" cx="146.45" cy="157.72" r="8.46"/>
	<circle class="st2" cx="168.87" cy="53" r="8.46"/>
	
		<ellipse transform="matrix(0.1606 -0.987 0.987 0.1606 68.768 228.7479)" class="st1" cx="168.87" cy="73.94" rx="8.46" ry="8.46"/>
	
		<ellipse transform="matrix(0.9231 -0.3847 0.3847 0.9231 -23.506 72.2604)" class="st1" cx="168.87" cy="94.89" rx="8.46" ry="8.46"/>
	
		<ellipse transform="matrix(0.9231 -0.3847 0.3847 0.9231 -31.5626 73.8719)" class="st1" cx="168.87" cy="115.83" rx="8.46" ry="8.46"/>
	<circle class="st1" cx="168.87" cy="136.78" r="8.46"/>
	<path class="st0" d="M201.96,205.78c-19.43,3.56-28.82,17.32-33.08,26.82h55.26v-23.88C218.55,205.71,211.08,204.11,201.96,205.78z
		"/>
	<g>
		<path class="st3" d="M306.47,152.44c6.07-9.4,12.14-17.52,16.94-24.08c3.04-3.82,5.78-6.95,8.12-8.91
			c1.47-1.17,2.74-1.96,3.62-1.96c5.48-0.29,9.4,5.38,7.64,4.31c-3.33-1.57-9.89,7.64-14,12.92c-4.31,5.38-8.32,11.16-13.12,18.31
			c-8.62,12.92-16.45,25.85-18.89,32.01c5.19-0.39,22.42-17.13,26.73-21.15c0.59-0.49,1.08,0.29,0.78,0.59
			c-4.7,5.29-22.22,23.69-27.8,25.45c-1.17,0.39-2.25,0.1-3.23-0.39c-1.57-0.88-3.72-2.94-3.72-5.09c0-1.96,2.15-7.05,6.95-15.86
			c-3.43,2.74-23.59,21.54-28.68,21.54c-1.76,0-4.9-4.41-4.9-6.66c0-5.29,8.81-17.82,19.19-24.57c7.54-4.99,14.2-8.13,20.07-8.13
			C304.02,150.78,305.59,151.46,306.47,152.44z M305.59,153.81c-1.27-0.39-2.74-0.39-4.11,0c-4.11,1.08-10.57,6.07-15.96,11.36
			c-8.81,8.32-15.37,18.6-14.59,19.09c1.17,0.68,16.84-10.18,28.29-20.17L305.59,153.81z"/>
		<path class="st3" d="M334.07,151.27c0.59-0.49,1.17-0.59,1.47-0.59c2.25,0,5.97,3.82,5.97,6.36c0,0.29-0.29-0.1-0.98-0.2
			c-1.47-0.2-4.89,3.82-8.03,7.83c-1.27,1.57-5.48,7.64-5.48,7.64c8.52-9.3,26.82-22.61,31.72-20.95c1.27,0.49,4.7,4.21,4.7,5.68
			c0,8.81-19.19,32.31-32.6,32.31c-3.82,0-8.32-2.45-8.32-5.68c0-0.49,0.49-0.68,0.49-0.39c0,0.98,1.67,2.84,3.72,2.84
			c9.89,0,27.51-25.36,28.68-30.84c-1.47,0-17.23,7.83-34.27,25.75c-9.5,13.61-23.3,34.46-25.75,48.95
			c-0.49,2.45-0.49,4.41,1.76,4.7c-4.5,1.76-8.91-1.86-8.13-7.83c2.06-16.45,21.64-47.09,36.52-66.18
			C328.2,157.34,332.11,152.83,334.07,151.27z"/>
	</g>
	<g>
		<path class="st4" d="M393.26,180.64c-7.64,0-12.53-2.06-12.53-5.68c0-5.29,14.2-13.12,16.64-13.12c0.1,0,0.2,0,0.29,0.1
			c-3.04,1.76-13.31,8.13-13.31,12.43c0,0.49,0.59,1.08,2.45,1.08c2.94,0,6.46-0.39,10.57-1.27c16.64-25.55,42.68-55.22,50.12-55.22
			c3.52,0,7.44,3.43,8.03,7.44c-0.78-1.08-1.86-1.37-2.74-1.37c-5.78,0-26.82,23.69-43.57,46.01c29.86-9.3,70.59-30.94,70.59-46.6
			c0-9.3-12.63-14.49-29.96-14.49c-34.56,0-78.52,29.37-78.52,42.1c0,4.01,4.7,6.46,7.25,6.66c0,0,0,0.1-1.57,0.1
			c-6.95,0-12.34-1.96-12.34-9.3c0-13.31,35.24-42.39,85.86-42.39c10.57,0,34.07,4.11,34.07,20.17c0,25.75-54.92,47.29-81.65,52.28
			c-9.2,12.83-15.96,24.08-15.96,28.1c0,1.86-0.1,3.33,1.66,3.62c-0.49,0.2-1.17,0.29-1.57,0.29c-2.64,0-4.31-2.45-4.31-6.07
			C382.78,200.22,386.99,191.01,393.26,180.64z"/>
		<path class="st4" d="M460.32,190.04c-1.57-0.49-4.01-2.94-4.01-4.7c0-5.68,14.2-27.02,20.46-32.01c0.49-0.49,1.08-0.59,1.47-0.59
			c2.25,0,6.17,3.92,6.17,6.36c0,0.39-0.49-0.1-1.27-0.2c-4.01-0.39-17.43,21.93-18.6,25.94c5.97-1.57,20.27-15.17,26.24-20.95
			c0.69-0.49,1.17,0.29,0.88,0.59c-8.52,9.2-24.08,25.16-30.15,25.65C461.1,190.13,460.81,190.13,460.32,190.04z M493.02,140.89
			c0.88,0.98,1.47,2.45,1.08,2.45c-0.2,0-0.98-0.39-2.06,0.1c-1.67,0.68-6.17,4.7-7.34,6.36c-1.37,1.76-3.43-0.29-3.52-2.06
			c-0.1-2.84,3.62-9.2,6.17-9.99C489.59,137.46,491.74,139.42,493.02,140.89z"/>
		<path class="st4" d="M511.52,184.85c6.17-1.66,20.17-15.08,26.43-20.95c0.59-0.49,1.08,0.29,0.78,0.59
			c-8.52,9.3-24.48,25.45-30.35,25.45c-0.98,0-2.06-0.88-3.04-2.06c-1.08-1.27-1.76-2.74-1.76-3.82c0-5.58,11.36-21.93,16.45-26.53
			c-8.03,3.62-22.42,15.47-29.66,23.3c-1.27,1.27-2.45,2.74-3.52,4.11c-2.64,3.13-3.33,5.78-1.86,6.46
			c-2.94,0.69-5.29-2.45-6.07-5.29c-0.2-0.69,0.29-3.33,2.74-7.83c2.35-4.6,6.07-10.38,9.3-14.88c3.52-4.99,7.83-10.18,10.38-12.14
			c0.39-0.39,0.98-0.49,1.27-0.49c2.45,0,6.17,3.82,6.17,6.27c0,0.39-0.39-0.1-1.17-0.2c-1.27-0.1-4.89,4.01-7.83,7.83
			c-4.6,6.07-9.69,13.31-11.16,16.06c1.08-1.57,2.94-3.52,4.99-5.48c10.96-10.77,28.2-23.99,31.52-23.99c2.35,0,5.48,5.29,4.21,6.36
			C526.89,159.59,511.71,180.25,511.52,184.85z"/>
		<path class="st4" d="M535.6,163.11c6.75-11.36,13.71-21.34,19.97-29.66c4.99-6.66,9.2-11.45,12.33-14
			c1.66-1.27,2.94-1.76,3.72-1.76c5.68,0,9.4,5.78,7.64,4.7c-2.64-1.27-6.36,2.45-12.14,9.1c-1.08,1.27-5.87,7.44-5.87,7.44
			c-5.87,7.44-13.22,18.6-18.41,26.92c7.73-8.22,19.48-17.33,24.28-17.33c2.15,0,4.7,4.11,4.7,6.17c0,7.25-19.97,19.87-30.84,18.9
			c4.21,10.87,17.13,25.85,29.96,25.85c3.43,0,6.85-1.08,10.08-3.52c0.29-0.29,1.08-0.2,0.59,0.29c-4.11,3.92-8.71,5.58-13.41,5.58
			c-12.63,0-25.85-12.14-32.5-23.59c-2.35,4.41-7.73,11.94-3.33,12.43c-1.18,0.49-2.25,0.1-3.23-0.49
			c-0.68-0.29-2.64-2.35-3.43-3.92c-0.2-0.78-0.2-4.01,2.94-10.38c0.88-1.96,1.96-3.92,2.94-5.87c-0.39-1.57-0.69-3.03-0.29-4.11
			C531.88,164.29,533.74,163.5,535.6,163.11z M540.1,170.45c0.2,0.98,0.39,1.66,0.59,1.96c8.62-1.17,19.87-13.8,22.81-19.68
			C556.75,154.4,541.08,169.08,540.1,170.45z"/>
	</g>
	<path class="st5" d="M241.99,97.52c-7.58,25.54-14.9,34.56-26.88,43.21c-14.21,10.26-87.9,70.57-58.2,131.36
		c-8.35-32.7,18.68-70.4,38.95-72.59c28.68-3.09,30.92,6.27,39.33,2.19c6.96-3.37,3.14-15.52,3.51-17c0.37-1.48,8.09-3.58,7.54-4.51
		c-0.56-0.93-5.57-5.31-5.57-6.42c0-1.11,6.42-5.44,9.33-5.81c2.91-0.37-6.71-5.87-6.71-8.83c0-2.97,13.82-5.79,13.33-8.38
		C255.69,145.74,234.88,143.6,241.99,97.52z"/>
</g>
</svg>
